<svg xmlns="http://www.w3.org/2000/svg" version="1.1" xmlns:xlink="http://www.w3.org/1999/xlink" xmlns:svgjs="http://svgjs.dev/svgjs" width="1000" height="1000"><style>
    #light-icon {
      display: inline;
    }
    #dark-icon {
      display: none;
    }

    @media (prefers-color-scheme: dark) {
      #light-icon {
        display: none;
      }
      #dark-icon {
        display: inline;
      }
    }
  </style><g id="light-icon"><svg xmlns="http://www.w3.org/2000/svg" version="1.1" xmlns:xlink="http://www.w3.org/1999/xlink" xmlns:svgjs="http://svgjs.dev/svgjs" width="1000" height="1000"><g clip-path="url(#SvgjsClipPath1171)"><rect width="1000" height="1000" fill="#ffffff"></rect><g transform="matrix(3.3333333333333335,0,0,3.3333333333333335,166.66666666666663,0)"><svg xmlns="http://www.w3.org/2000/svg" version="1.1" xmlns:xlink="http://www.w3.org/1999/xlink" xmlns:svgjs="http://svgjs.dev/svgjs" width="200" height="300"><svg id="_Слой_1" data-name="Слой_1" xmlns="http://www.w3.org/2000/svg" viewBox="0 0 200 300">
  <path d="M91.29,173.53c-7.03-.33-11.33-.54-15.84-.75-.86-5.44,1.43-7.59,6.35-6.69,7.87,1.44,10.69-2.19,11.68-9.59,1.24-9.24,3.55-18.34,5.41-27.52-18.62-2.48-28.83,5.05-31.94,23.17-1.09,6.34-6.05,10.16-11.61,8.94-5.2-1.14-7.22-6.04-5.17-12.8,3.3-10.82,11.67-16.6,21.31-20.95,3.53-1.59,7.19-3.23,10.96-3.9,13.31-2.33,26.53-4.8,38.74-10.98.69-.35,1.72-.05,3.12-.05-.27,2.6-.52,4.97-.9,8.6,9.2,1.21,18.17,2.99,27.17,3.25,3.19.09,6.41-3.67,9.76-5.41,1.81-.94,3.91-1.31,5.88-1.94.37.69.75,1.38,1.12,2.07-3.54,5.55-6.9,11.23-10.69,16.61-3.41,4.84-8.44,6.25-14.02,4.65-7.03-2.02-13.94-4.43-21.97-7.02-2.21,10.67-4.4,21.25-6.77,32.71h18.69c1.12,5.15-.45,7.21-5.11,7.18-4.78-.03-10.81-1.31-13.98,1.06-3.16,2.36-3.51,8.54-5,13.07-11.32,34.44-39.94,44.42-64.07,40.39-8.75-1.46-13.22-6.65-11.34-13.24.79-2.77,3.75-6.25,6.3-6.82,2.34-.52,7.19,1.83,7.95,3.98,4.27,12.08,17.88,11.58,26.57,3.02,1.77-1.74,3.66-3.72,4.53-5.97,4.3-11.17,8.27-22.46,12.86-35.08Z"></path>
</svg></svg></g></g><defs><clipPath id="SvgjsClipPath1171"><rect width="1000" height="1000" x="0" y="0" rx="500" ry="500"></rect></clipPath></defs></svg></g><g id="dark-icon"><svg xmlns="http://www.w3.org/2000/svg" version="1.1" xmlns:xlink="http://www.w3.org/1999/xlink" xmlns:svgjs="http://svgjs.dev/svgjs" width="1000" height="1000"><g><g transform="matrix(3.3333333333333335,0,0,3.3333333333333335,166.66666666666663,0)"><svg xmlns="http://www.w3.org/2000/svg" version="1.1" xmlns:xlink="http://www.w3.org/1999/xlink" xmlns:svgjs="http://svgjs.dev/svgjs" width="200" height="300"><svg id="_Слой_1" data-name="Слой_1" xmlns="http://www.w3.org/2000/svg" viewBox="0 0 200 300">
  <path d="M91.29,173.53c-7.03-.33-11.33-.54-15.84-.75-.86-5.44,1.43-7.59,6.35-6.69,7.87,1.44,10.69-2.19,11.68-9.59,1.24-9.24,3.55-18.34,5.41-27.52-18.62-2.48-28.83,5.05-31.94,23.17-1.09,6.34-6.05,10.16-11.61,8.94-5.2-1.14-7.22-6.04-5.17-12.8,3.3-10.82,11.67-16.6,21.31-20.95,3.53-1.59,7.19-3.23,10.96-3.9,13.31-2.33,26.53-4.8,38.74-10.98.69-.35,1.72-.05,3.12-.05-.27,2.6-.52,4.97-.9,8.6,9.2,1.21,18.17,2.99,27.17,3.25,3.19.09,6.41-3.67,9.76-5.41,1.81-.94,3.91-1.31,5.88-1.94.37.69.75,1.38,1.12,2.07-3.54,5.55-6.9,11.23-10.69,16.61-3.41,4.84-8.44,6.25-14.02,4.65-7.03-2.02-13.94-4.43-21.97-7.02-2.21,10.67-4.4,21.25-6.77,32.71h18.69c1.12,5.15-.45,7.21-5.11,7.18-4.78-.03-10.81-1.31-13.98,1.06-3.16,2.36-3.51,8.54-5,13.07-11.32,34.44-39.94,44.42-64.07,40.39-8.75-1.46-13.22-6.65-11.34-13.24.79-2.77,3.75-6.25,6.3-6.82,2.34-.52,7.19,1.83,7.95,3.98,4.27,12.08,17.88,11.58,26.57,3.02,1.77-1.74,3.66-3.72,4.53-5.97,4.3-11.17,8.27-22.46,12.86-35.08Z"></path>
</svg></svg></g></g></svg></g></svg>